# xmcd
# 
# Track frame offsets:
#     150
#     21215
#     32385
#     40497
#     56632
#     73059
#     88582
#     106222
#     117468
#     134584
#     151192
#     167447
#     175518
#     192218
#     201947
#     222183
#     247771
#     265396
# 
# Disc length: 3689
# 
# Revision: 2
# Processed by: cddbd v1.5.2PL0 Copyright (c) Steve Scherf et al.
# Submitted via: fre:ac v1.0.17
# 
DISCID=f50e6712
DTITLE=Салон AV - Родом из Ирландии
DYEAR=2001
DGENRE=Folk
TTITLE0=The Dartz - Родом из Ирландии
TTITLE1=Puck and Piper - Кувшин пивца
TTITLE2=Slua Si - Tommy Peoples' - The Man Who Shot the Windmill
TTITLE3=Mervent - Ev Sistr
TTITLE4=Telenn Gwad - Farewell to Nancy
TTITLE5=Puck and Piper - Бал у Ланнигана
TTITLE6=Reelroad - Kesh - Swallow Tail
TTITLE7=Foggy Dew - Galway Races
TTITLE8=Art Ceilidh - Owner of Nothing
TTITLE9=Mervent - The Blind Harper of Lochmaben
TTITLE10=The Dartz - Холодные камни
TTITLE11=Slua Si - Come and Join the British Army
TTITLE12=Puck and Piper - Каменистая дорога
TTITLE13=Foggy Dew - Rare Old Mountain Dew
TTITLE14=Reelroad - Венгерская
TTITLE15=Telenn Gwad - Little Summer Girl
TTITLE16=The Dartz - Кунла
TTITLE17=Puck and Piper - Все отдам я за грог
EXTD=Продюсер: Евгений Ильницкий.\nХудожник: Виген Амамчан.\nПриложение к журналу "Салон AV".\nОтдельно не продается.\n\nАвтозвук.\nПродюсерский центр "Триоль"\nКлуб "Точка"
EXTT0=The Dartz на стихи У.Б.Йейтса
EXTT1=народная ирландская "Jug of Punch", русский текст И.Воронова
EXTT2=народная
EXTT3=народная бретонская
EXTT4=народная ирландская
EXTT5=народная ирландская "Lannigan's Ball", русский текст И.Воронова
EXTT6=народная
EXTT7=народная ирландская
EXTT8=М.Смирнов
EXTT9=народная шотландская
EXTT10=народная ирландская "Cad e sin do'n te sin", русский текст The Dartz
EXTT11=народная ирландская
EXTT12=народная ирландская "Rocky Road to Dublin", русский текст И.Воронова
EXTT13=народная ирландская
EXTT14=народная
EXTT15=Е.Карасев
EXTT16=народная ирландская "Cunla", русский текст The Dartz
EXTT17=народная ирландская "All for Me Grog", русский текст И.Воронова
PLAYORDER=
